<?xml version="1.0" encoding="UTF-8"?>
<svg version="1.1" xmlns="http://www.w3.org/2000/svg" width="197" height="139">
<path d="M0 0 C65.01 0 130.02 0 197 0 C197 45.87 197 91.74 197 139 C131.99 139 66.98 139 0 139 C0 93.13 0 47.26 0 0 Z " fill="#040505" transform="translate(0,0)"/>
<path d="M0 0 C14.10792881 0.35541659 28.6996544 7.08716696 40.98168945 13.6003418 C37.98168945 14.6003418 37.98168945 14.6003418 34.98168945 14.6003418 C35.58121438 18.15752302 36.97716954 20.06397898 39.29418945 22.7878418 C46.08195444 31.44713047 48.45651974 39.40291623 47.91137695 50.4440918 C47.41872062 53.99499493 47.01600719 54.56469232 44.36450195 57.3190918 C37.04777552 61.6003418 37.04777552 61.6003418 32.98168945 61.6003418 C32.98168945 59.9503418 32.98168945 58.3003418 32.98168945 56.6003418 C31.99168945 57.0953418 31.99168945 57.0953418 30.98168945 57.6003418 C30.94043945 58.6522168 30.89918945 59.7040918 30.85668945 60.7878418 C29.86818172 65.09491122 29.45458189 65.30773843 25.98168945 67.6003418 C22.74988675 69.78195368 22.10621047 70.2333325 20.79418945 74.1003418 C21.00684545 78.06992041 21.82054253 80.2814376 23.98168945 83.6003418 C27.26660318 85.79028428 28.81264584 85.95311519 32.66918945 86.2253418 C33.66305664 86.30010742 34.65692383 86.37487305 35.6809082 86.4519043 C36.81979492 86.52538086 36.81979492 86.52538086 37.98168945 86.6003418 C36.23168945 91.4753418 36.23168945 91.4753418 33.98168945 92.6003418 C33.65168945 91.9403418 33.32168945 91.2803418 32.98168945 90.6003418 C32.75223633 91.37893555 32.5227832 92.1575293 32.28637695 92.9597168 C30.65877615 96.25390285 29.51620387 96.65650589 26.10668945 97.8503418 C25.24301758 98.16487305 24.3793457 98.4794043 23.48950195 98.8034668 C14.56759691 101.63846466 2.76756965 102.40433828 -6.01831055 98.6003418 C-8.58081055 96.1003418 -8.58081055 96.1003418 -10.01831055 93.6003418 C-10.01831055 92.9403418 -10.01831055 92.2803418 -10.01831055 91.6003418 C-13.31831055 91.6003418 -16.61831055 91.6003418 -20.01831055 91.6003418 C-18.8737793 89.13549805 -18.8737793 89.13549805 -17.01831055 86.6003418 C-14.3815918 86.03393555 -14.3815918 86.03393555 -11.33081055 86.0378418 C-4.87489691 85.74155591 -0.25244315 84.54980748 4.5793457 80.14331055 C7.37256107 77.06999559 7.98168945 75.85436305 7.98168945 71.6003418 C6.99168945 71.2497168 6.00168945 70.8990918 4.98168945 70.5378418 C0.86572846 68.80259959 -2.07544067 66.14438958 -5.3190918 63.1237793 C-6.95559244 61.52166384 -6.95559244 61.52166384 -9.01831055 60.6003418 C-7.14331055 54.8503418 -7.14331055 54.8503418 -6.01831055 52.6003418 C-7.50331055 53.0953418 -7.50331055 53.0953418 -9.01831055 53.6003418 C-9.34831055 55.2503418 -9.67831055 56.9003418 -10.01831055 58.6003418 C-14.05502045 56.66608497 -17.78630957 54.30596436 -21.58081055 51.94018555 C-23.78086352 50.73086156 -25.56816833 50.05974346 -28.01831055 49.6003418 C-29.66283341 54.65231605 -30.40347764 59.26643213 -30.39331055 64.6003418 C-30.39459961 65.30368652 -30.39588867 66.00703125 -30.3972168 66.73168945 C-30.28478935 72.21380507 -29.29485635 75.29987543 -26.01831055 79.6003418 C-26.01831055 80.2603418 -26.01831055 80.9203418 -26.01831055 81.6003418 C-25.39956055 81.8890918 -24.78081055 82.1778418 -24.14331055 82.4753418 C-22.01831055 83.6003418 -22.01831055 83.6003418 -20.01831055 85.6003418 C-21.00831055 87.5803418 -21.00831055 87.5803418 -22.01831055 89.6003418 C-30.37262979 86.65175853 -39.10025134 79.70322169 -43.01831055 71.6003418 C-42.89331055 68.1003418 -42.89331055 68.1003418 -42.01831055 65.6003418 C-43.44143555 66.5903418 -43.44143555 66.5903418 -44.89331055 67.6003418 C-48.01831055 69.6003418 -48.01831055 69.6003418 -50.01831055 69.6003418 C-50.67831055 68.2803418 -51.33831055 66.9603418 -52.01831055 65.6003418 C-51.60838867 64.99706055 -51.1984668 64.3937793 -50.77612305 63.7722168 C-50.23729492 62.97299805 -49.6984668 62.1737793 -49.14331055 61.3503418 C-48.60963867 60.56143555 -48.0759668 59.7725293 -47.52612305 58.9597168 C-46.19831146 56.88200126 -45.09941517 54.81150673 -44.01831055 52.6003418 C-44.71053711 53.05304443 -44.71053711 53.05304443 -45.41674805 53.51489258 C-58.78439876 62.1767868 -75.33678502 72.67656925 -92.01831055 71.6003418 C-89.00933831 67.50990522 -85.58507844 64.42029894 -81.58081055 61.3503418 C-80.96826416 60.87653076 -80.35571777 60.40271973 -79.72460938 59.91455078 C-63.20390649 47.24139636 -63.20390649 47.24139636 -55.95581055 44.6003418 C-52.20533882 43.1387609 -51.09230652 41.50972862 -49.45581055 37.8503418 C-48.94564134 36.4445422 -48.4553258 35.03057353 -48.01831055 33.6003418 C-46.73956055 33.6828418 -45.46081055 33.7653418 -44.14331055 33.8503418 C-35.50241144 33.82325434 -28.6717964 29.70749945 -21.83081055 24.7722168 C-20.01831055 23.6003418 -20.01831055 23.6003418 -18.01831055 23.6003418 C-17.79143555 23.0847168 -17.56456055 22.5690918 -17.33081055 22.0378418 C-16.01831055 19.6003418 -16.01831055 19.6003418 -13.51831055 16.5378418 C-10.59954663 12.59751051 -10.02961783 8.64333722 -9.37768555 3.8581543 C-8.59928718 -1.03221805 -4.22147665 0.0816788 0 0 Z " fill="#85CDCE" transform="translate(100.018310546875,7.399658203125)"/>
<path d="M0 0 C0.33 0 0.66 0 1 0 C1 38.28 1 76.56 1 116 C-5.93 116 -12.86 116 -20 116 C-20.99 114.68 -21.98 113.36 -23 112 C-22.67 111.67 -22.34 111.34 -22 111 C-21.95936168 109.33382885 -21.957279 107.66611905 -22 106 C-24.64 104.68 -27.28 103.36 -30 102 C-29.505 100.989375 -29.01 99.97875 -28.5 98.9375 C-26.89604767 95.19747845 -26.59932734 92.08686117 -27 88 C-28.88846183 85.67133771 -28.88846183 85.67133771 -32.0390625 85.8046875 C-33.22242188 85.82789062 -34.40578125 85.85109375 -35.625 85.875 C-36.81351563 85.89304687 -38.00203125 85.91109375 -39.2265625 85.9296875 C-40.14179688 85.95289062 -41.05703125 85.97609375 -42 86 C-41.95875 84.783125 -41.9175 83.56625 -41.875 82.3125 C-41.86245492 78.78105873 -42.40001783 76.19996434 -44 73 C-41.21326314 73.60642824 -38.9298298 74.43979235 -36.43359375 75.8125 C-35.78326172 76.16570312 -35.13292969 76.51890625 -34.46289062 76.8828125 C-33.79451172 77.25148438 -33.12613281 77.62015625 -32.4375 78 C-26.91847569 81.02673241 -22.7653767 83.14186115 -16.375 83.125 C-15.39273438 83.12757812 -14.41046875 83.13015625 -13.3984375 83.1328125 C-11.04774989 83.27005965 -11.04774989 83.27005965 -10 82 C-8.8870694 73.25554531 -12.93002189 68.10520328 -18.015625 61.3046875 C-24.35047554 53.30636901 -31.50014501 44.68071639 -40.1875 39.1875 C-43 37 -43 37 -43.4375 33.6875 C-43.293125 32.800625 -43.14875 31.91375 -43 31 C-42.40574219 30.85304688 -41.81148437 30.70609375 -41.19921875 30.5546875 C-24.55851499 26.05160437 -11.93204505 15.48797849 -1.609375 2.01953125 C-1.07828125 1.35308594 -0.5471875 0.68664062 0 0 Z " fill="#026153" transform="translate(196,23)"/>
<path d="M0 0 C19 0 19 0 24.3125 5 C25.58862156 6.97037165 26.82273569 8.96901515 28 11 C28.93954417 12.24358764 29.89636799 13.47443246 30.875 14.6875 C34.42910021 19.48303239 37.76802047 24.43508814 41.13037109 29.3659668 C43.35692783 32.62945832 45.58745061 35.86933391 48 39 C44.93979783 45.66143456 41.19699509 48.42060403 34.703125 51.6328125 C31.78338512 53.10955955 29.32416273 54.84670116 26.72265625 56.80859375 C24.82623516 58.12017749 22.87492294 59.09563327 20.8125 60.125 C12.77364505 64.44830172 6.38861119 71.61138881 0 78 C0 52.26 0 26.52 0 0 Z " fill="#003634" transform="translate(0,0)"/>
<path d="M0 0 C7.13280678 0.95764535 11.65525511 3.23278157 17 8 C17.72832031 8.64710937 18.45664063 9.29421875 19.20703125 9.9609375 C23.14334441 13.6631996 25.90344638 16.5172319 27 22 C28.32 22 29.64 22 31 22 C31.9795958 23.79143207 32.9586633 25.58315304 33.9375 27.375 C34.48277344 28.37273437 35.02804688 29.37046875 35.58984375 30.3984375 C36.4149759 31.92070346 37.22564391 33.45128783 38 35 C32.24237834 33.91103333 26.60752181 32.70663707 21 31 C21.72434285 34.26717191 21.72434285 34.26717191 24.9140625 35.71875 C26.14605766 36.32277355 27.38332559 36.91613257 28.625 37.5 C29.22957031 37.79519531 29.83414063 38.09039062 30.45703125 38.39453125 C34.58496346 40.39248565 38.77461172 42.21860237 43 44 C43 44.33 43 44.66 43 45 C17.59 45 -7.82 45 -34 45 C-30.88967528 39.81612546 -27.94334005 35.53830059 -23 32 C-17.93153497 30.74342548 -13.66552096 31.85638226 -9 34 C-7.0075675 34.37593066 -5.0081326 34.71979545 -3 35 C-3.89790544 31.9797726 -4.57449502 30.33024267 -7.09375 28.375 C-10.66590604 26.68494768 -13.93121202 26.44249529 -17.8125 26.3125 C-18.85180664 26.26125977 -18.85180664 26.26125977 -19.91210938 26.20898438 C-21.60752849 26.12713656 -23.30373458 26.06187635 -25 26 C-25 22 -25 22 -23.6796875 20.3671875 C-23.08414062 19.87476562 -22.48859375 19.38234375 -21.875 18.875 C-21.29492188 18.37742187 -20.71484375 17.87984375 -20.1171875 17.3671875 C-15.25409367 14.22681326 -10.30707517 13.6966269 -4.625 13.375 C-2.75714844 13.26285156 -2.75714844 13.26285156 -0.8515625 13.1484375 C0.55996094 13.07496094 0.55996094 13.07496094 2 13 C2.23428313 8.2102679 2.23428313 8.2102679 0 4 C0 2.68 0 1.36 0 0 Z " fill="#905191" transform="translate(51,94)"/>
<path d="M0 0 C0.90154816 0.00707474 1.80309631 0.01414948 2.73196411 0.0214386 C5.5956111 0.04930233 8.4572622 0.11202425 11.3203125 0.17578125 C13.26820082 0.20087456 15.21611995 0.22368592 17.1640625 0.24414062 C21.9252416 0.29910257 26.68493933 0.3853183 31.4453125 0.48828125 C32.32176103 12.80029626 32.32176103 12.80029626 28.09277344 17.96337891 C27.61098633 18.48722168 27.12919922 19.01106445 26.6328125 19.55078125 C26.13942383 20.12876465 25.64603516 20.70674805 25.13769531 21.30224609 C23.60811793 23.06606123 22.03713782 24.78059679 20.4453125 26.48828125 C19.95434082 27.02469238 19.46336914 27.56110352 18.95751953 28.11376953 C13.99266002 33.49110978 9.14823128 38.36025249 2.4453125 41.48828125 C1.71304892 33.87274007 4.25366783 28.32751984 7.4453125 21.48828125 C2.513925 26.0156265 -0.17190925 31.42724321 -0.8046875 38.140625 C-0.8046875 40.25815081 -0.69101864 42.37514866 -0.5546875 44.48828125 C-1.96511706 45.332128 -3.38332882 46.16297621 -4.8046875 46.98828125 C-5.59359375 47.45234375 -6.3825 47.91640625 -7.1953125 48.39453125 C-9.5546875 49.48828125 -9.5546875 49.48828125 -13.5546875 49.48828125 C-13.70164063 48.72644531 -13.84859375 47.96460938 -14 47.1796875 C-15.43642321 40.56718757 -17.26772042 35.65052949 -21.34765625 30.23046875 C-22.5546875 28.48828125 -22.5546875 28.48828125 -22.5546875 26.48828125 C-18.17007212 23.48828125 -18.17007212 23.48828125 -15.5546875 23.48828125 C-15.5546875 21.83828125 -15.5546875 20.18828125 -15.5546875 18.48828125 C-16.42480469 18.32392578 -16.42480469 18.32392578 -17.3125 18.15625 C-22.15215027 17.17394475 -26.20834866 15.94006214 -30.5546875 13.48828125 C-30.00554687 13.21628906 -29.45640625 12.94429687 -28.890625 12.6640625 C-26.30455197 11.36237691 -23.73699416 10.03323114 -21.1796875 8.67578125 C-20.26445312 8.19496094 -19.34921875 7.71414062 -18.40625 7.21875 C-15.4283045 5.56571441 -15.4283045 5.56571441 -12.97363281 2.91064453 C-8.95976155 -0.45772696 -5.04298179 -0.15030346 0 0 Z " fill="#3C1F2D" transform="translate(165.5546875,-0.48828125)"/>
<path d="M0 0 C15.84 0 31.68 0 48 0 C50.2807368 5.70184201 50.68935786 9.94797515 50 16 C46.65391445 23.41958101 38.4767409 30.10460637 31.03515625 33.359375 C27.19426852 34.56840684 23.9235419 35.13725852 20 34 C14.29549424 29.74579231 10.66054809 22.64711551 6.8671875 16.7578125 C5.35300183 14.52137928 3.86544062 12.6786759 2 10.75 C0 8 0 8 0 0 Z " fill="#3C1F2D" transform="translate(34,0)"/>
<path d="M0 0 C-0.38787346 3.33571177 -0.79974233 5.67157742 -2.5625 8.5625 C-4.1822892 11.30909907 -4.26835162 12.86923105 -4 16 C0.86638688 15.43563349 0.86638688 15.43563349 5.5 13.9375 C8.73974034 12.72259737 11.57080601 12.8655218 15 13 C14.55028253 17.94689215 12.2489288 21.38207929 9 25 C7.3497306 26.0268343 5.68756133 27.03567924 4 28 C4 28.99 4 29.98 4 31 C7.63 31 11.26 31 15 31 C15.99 33.475 15.99 33.475 17 36 C17.33 36.66 17.66 37.32 18 38 C-4.44 38 -26.88 38 -50 38 C-45.33333333 30.22222222 -45.33333333 30.22222222 -41 28 C-37.94912397 27.60119268 -35.05609116 27.69439088 -32 28 C-32.66 26.68 -33.32 25.36 -34 24 C-28.1805863 18.4603658 -22.11217653 13.4390908 -15.6875 8.625 C-15.00623047 8.11356445 -14.32496094 7.60212891 -13.62304688 7.07519531 C-4.0863025 0 -4.0863025 0 0 0 Z " fill="#8F5191" transform="translate(149,101)"/>
<path d="M0 0 C0.66 0 1.32 0 2 0 C2.66 1.65 3.32 3.3 4 5 C2.3603125 5.2165625 2.3603125 5.2165625 0.6875 5.4375 C-2.93122987 5.88288104 -2.93122987 5.88288104 -6 7 C-6.2475 8.134375 -6.495 9.26875 -6.75 10.4375 C-7.36875 12.2009375 -7.36875 12.2009375 -8 14 C-11.4375 15.25 -11.4375 15.25 -15 16 C-16.68732044 17.27056525 -16.68732044 17.27056525 -18 19 C-20.67731535 21.90042497 -23.06844176 24.14183838 -26.5625 25.9375 C-30.26462469 27.96273232 -32.17250811 30.11657973 -34 34 C-34.02524328 37.7500288 -34.02524328 37.7500288 -33 41 C-32.34 41.33 -31.68 41.66 -31 42 C-31 42.66 -31 43.32 -31 44 C-32.609375 45.515625 -32.609375 45.515625 -34.75 47.25 C-37.62931791 49.64274328 -39.04392942 51.08053727 -40.875 54.4375 C-41.926875 55.7059375 -41.926875 55.7059375 -43 57 C-46.3 57 -49.6 57 -53 57 C-53 44.46 -53 31.92 -53 19 C-46.07 18.01 -46.07 18.01 -39 17 C-31.72351803 15.3420674 -25.99761601 12.45571408 -19.55175781 8.84667969 C-15.12057744 6.42659087 -11.10963893 4.96316878 -6.05078125 4.3515625 C-3.74550199 3.95637177 -2.03540158 3.13026815 0 2 C0 1.34 0 0.68 0 0 Z " fill="#003734" transform="translate(53,82)"/>
<path d="M0 0 C14.11944826 3.01580448 22.14822153 9.2737936 30.0625 21.4375 C31.67784344 24.0427172 32 24.81908669 32 28 C25.94646693 28.47354887 22.23220307 27.09130593 16.9375 24.25 C16.25623047 23.90195313 15.57496094 23.55390625 14.87304688 23.1953125 C11.66414899 21.53075452 8.72698092 19.80944517 5.75390625 17.734375 C2.97830885 15.64472749 2.97830885 15.64472749 -1 16 C-1.33 16.66 -1.66 17.32 -2 18 C-2.66 18 -3.32 18 -4 18 C-3.48725306 13.64165099 -2.65787315 10.04106581 -1 6 C-0.64382592 4.0039411 -0.30789609 2.00407363 0 0 Z " fill="#3B1F2D" transform="translate(150,74)"/>
<path d="M0 0 C-0.90775366 5.55999116 -2.68508835 8.5456933 -7.05859375 12.09765625 C-17.80024965 19.04478298 -30.93470113 25.79991626 -44 25 C-45 24 -45 24 -45.3125 20.8125 C-44.93383417 16.19277688 -44.07132796 14.4587878 -41 11 C-38.07403053 9.95176251 -35.14575961 9.71331489 -32.0625 9.4375 C-22.46433815 8.2664346 -14.46064953 5.85488952 -5.83203125 1.34375 C-3 0 -3 0 0 0 Z " fill="#3B212E" transform="translate(45,71)"/>
<path d="M0 0 C6.37280879 2.28349273 11.76493845 5.66615101 16 11 C16.92220496 15.80864015 16.68023926 20.16961413 16 25 C19.86107457 22.42595029 19.94319692 20.38979741 21 16 C23.31 17.32 25.62 18.64 28 20 C28 20.66 28 21.32 28 22 C21.88960062 26.44392682 16.45732747 26.99569324 9 26 C4.17134667 23.93057715 1.80400459 21.04011594 -0.31640625 16.359375 C-1.86117299 11.02772294 -1.74863308 5.24589923 0 0 Z " fill="#F3D667" transform="translate(74,62)"/>
<path d="M0 0 C2.015625 0.4140625 2.015625 0.4140625 4.453125 1.4140625 C8.52753018 3.00407428 12.69177936 2.5651872 17.015625 2.4140625 C16.48015885 6.96552479 14.95119446 9.90158461 12.015625 13.4140625 C8.80761719 14.09521484 8.80761719 14.09521484 5.0625 14 C4.40227844 13.99151031 3.74205688 13.98302063 3.06182861 13.97427368 C0.96140447 13.940791 -1.13512047 13.86554771 -3.234375 13.7890625 C-4.6614027 13.75895506 -6.08849086 13.73158058 -7.515625 13.70703125 C-11.00646673 13.64102468 -14.4950401 13.53755076 -17.984375 13.4140625 C-13.65182593 6.06878858 -9.32964558 -0.85680419 0 0 Z " fill="#8F5191" transform="translate(34.984375,125.5859375)"/>
<path d="M0 0 C1.32 0 2.64 0 4 0 C4 1.32 4 2.64 4 4 C1.69921875 5.8515625 1.69921875 5.8515625 -1.3125 7.625 C-2.29863281 8.21539062 -3.28476563 8.80578125 -4.30078125 9.4140625 C-5.19152344 9.93742188 -6.08226562 10.46078125 -7 11 C-7.99 11.66 -8.98 12.32 -10 13 C-9.34 15.31 -8.68 17.62 -8 20 C-17.24 20 -26.48 20 -36 20 C-31.26040495 12.10067492 -31.26040495 12.10067492 -27 10 C-24.43359375 9.74609375 -24.43359375 9.74609375 -21.5 9.6875 C-13.95926533 9.41311944 -5.41582966 5.41582966 0 0 Z " fill="#0D080B" transform="translate(135,119)"/>
<path d="M0 0 C18.81 0 37.62 0 57 0 C51.71160836 5.28839164 46.22658876 8.63073765 38.640625 9.25 C34.61055569 8.86845498 31.07372096 7.28933234 27.31591797 5.84130859 C18.79578153 2.83607031 9.89979547 3.59341036 1 4 C0.67 2.68 0.34 1.36 0 0 Z " fill="#016155" transform="translate(89,0)"/>
<path d="M0 0 C0.66 0 1.32 0 2 0 C2.66 1.65 3.32 3.3 4 5 C2.3603125 5.2165625 2.3603125 5.2165625 0.6875 5.4375 C-2.93122987 5.88288104 -2.93122987 5.88288104 -6 7 C-6.2475 8.134375 -6.495 9.26875 -6.75 10.4375 C-7.1625 11.613125 -7.575 12.78875 -8 14 C-11.4375 15.25 -11.4375 15.25 -15 16 C-16.72943475 17.31267956 -16.72943475 17.31267956 -18 19 C-20 21.1875 -20 21.1875 -22 23 C-22.99 23 -23.98 23 -25 23 C-25 19.37 -25 15.74 -25 12 C-18.8411961 8.27661665 -13.37100595 5.41542751 -6.19140625 4.421875 C-3.84573744 3.9703024 -2.0794096 3.15575385 0 2 C0 1.34 0 0.68 0 0 Z " fill="#004B45" transform="translate(53,82)"/>
<path d="M0 0 C0.33735269 6.1847994 -0.23919906 11.37900928 -3 17 C-5.83295802 20.13922375 -7.08906876 20.93125047 -11.3125 21.25 C-12.199375 21.1675 -13.08625 21.085 -14 21 C-13.29350096 18.8354072 -12.57702922 16.67523636 -11.84375 14.51953125 C-11.31569882 12.94271176 -10.81160398 11.35743502 -10.34375 9.76171875 C-9.08349543 5.77841411 -8.29378231 4.23982229 -4.9375 1.5 C-2 0 -2 0 0 0 Z " fill="#EAD064" transform="translate(144,69)"/>
<path d="M0 0 C4.2396417 1.29576181 8.19876423 3.11248159 12.2265625 4.953125 C13.48049805 5.51870117 13.48049805 5.51870117 14.75976562 6.09570312 C16.81333512 7.02274307 18.86462537 7.95449378 20.9140625 8.890625 C20.9140625 9.220625 20.9140625 9.550625 20.9140625 9.890625 C6.0640625 9.395625 6.0640625 9.395625 -9.0859375 8.890625 C-4.52206889 -0.23711223 -4.52206889 -0.23711223 0 0 Z " fill="#915292" transform="translate(73.0859375,129.109375)"/>
<path d="M0 0 C2 2.5 2 2.5 3 5 C2.01 5.495 2.01 5.495 1 6 C0.67 7.32 0.34 8.64 0 10 C-5.61 10 -11.22 10 -17 10 C-12.50244399 2.50407332 -8.8364855 -1.44860418 0 0 Z " fill="#C0B5B5" transform="translate(116,129)"/>
<path d="M0 0 C-0.52162717 4.69464449 -2.12514403 5.12514403 -6 9 C1.26 9 8.52 9 16 9 C16 9.33 16 9.66 16 10 C5.44 10 -5.12 10 -16 10 C-7.01840491 -0.47852761 -7.01840491 -0.47852761 0 0 Z " fill="#0F080E" transform="translate(70,129)"/>
<path d="M0 0 C0.66 0 1.32 0 2 0 C2.66 1.65 3.32 3.3 4 5 C2.3603125 5.2165625 2.3603125 5.2165625 0.6875 5.4375 C-2.93122987 5.88288104 -2.93122987 5.88288104 -6 7 C-7.22969878 10.51190809 -7.22969878 10.51190809 -8 14 C-9.98 14 -11.96 14 -14 14 C-14.33 13.01 -14.66 12.02 -15 11 C-16.49985609 9.33289654 -16.49985609 9.33289654 -18 8 C-14.23572553 5.90873641 -10.64337545 5.2805763 -6.4375 4.5625 C-4.03054145 4.00704803 -2.15132661 3.19518145 0 2 C0 1.34 0 0.68 0 0 Z " fill="#003936" transform="translate(53,82)"/>
<path d="M0 0 C3.69230769 0.69230769 3.69230769 0.69230769 5 2 C5.41221374 10.38167939 5.41221374 10.38167939 3 14 C2.01 13.67 1.02 13.34 0 13 C-1.25069801 10.49860398 -1.13302467 8.72607309 -1.125 5.9375 C-1.12757813 5.03902344 -1.13015625 4.14054687 -1.1328125 3.21484375 C-1 1 -1 1 0 0 Z " fill="#01514A" transform="translate(7,54)"/>
<path d="M0 0 C2.8125 0.3125 2.8125 0.3125 6 2 C7.73276843 6.08120915 9 10.54043365 9 15 C8.34 15 7.68 15 7 15 C5.31267723 13.01739574 3.64633943 11.0167658 2 9 C1.34 8.67 0.68 8.34 0 8 C0 5.36 0 2.72 0 0 Z " fill="#8D508F" transform="translate(83,107)"/>
<path d="M0 0 C0.8971875 0.5259375 0.8971875 0.5259375 1.8125 1.0625 C-6.86719888 5.5630846 -15.42562773 7.42405082 -25.1875 7.0625 C-22.98444648 3.75791973 -22.7776348 3.6561599 -19.16015625 2.9296875 C-18.36802734 2.76339844 -17.57589844 2.59710938 -16.75976562 2.42578125 C-15.51743164 2.18408203 -15.51743164 2.18408203 -14.25 1.9375 C-12.61565044 1.60270752 -10.98152592 1.26681414 -9.34765625 0.9296875 C-8.62199463 0.78644043 -7.89633301 0.64319336 -7.14868164 0.49560547 C-1.66782423 -0.71478181 -1.66782423 -0.71478181 0 0 Z " fill="#0E1416" transform="translate(30.1875,74.9375)"/>
<path d="M0 0 C0.99 0 1.98 0 3 0 C2.46823628 4.51999163 0.97021532 7.54812814 -2 11 C-5.25 11.375 -5.25 11.375 -8 11 C-6.60366572 6.55711819 -4.39598172 4.13475236 -1 1 C-0.67 0.67 -0.34 0.34 0 0 Z " fill="#070306" transform="translate(49,128)"/>
<path d="M0 0 C1.32 0 2.64 0 4 0 C3.83007387 8.12555866 2.11704678 13.99646286 -2 21 C-3.07072588 17.78782235 -2.94578406 17.01196921 -2.125 13.875 C-1.00209613 9.2544023 -0.45064663 4.73178958 0 0 Z " fill="#090407" transform="translate(188,0)"/>
<path d="M0 0 C1 1 1 1 1.0625 3.5625 C1.041875 4.366875 1.02125 5.17125 1 6 C0.34 6 -0.32 6 -1 6 C-1 5.01 -1 4.02 -1 3 C-2.0725 3.474375 -3.145 3.94875 -4.25 4.4375 C-6.80839865 5.53766332 -9.25835017 6.45167003 -12 7 C-12.33 5.35 -12.66 3.7 -13 2 C-12.05125 1.855625 -11.1025 1.71125 -10.125 1.5625 C-1.12416851 -0.05764967 -1.12416851 -0.05764967 0 0 Z " fill="#162222" transform="translate(117,100)"/>
<path d="M0 0 C3.465 1.98 3.465 1.98 7 4 C7 4.66 7 5.32 7 6 C0.6 10.06153846 0.6 10.06153846 -2.4375 9.75 C-2.953125 9.5025 -3.46875 9.255 -4 9 C-3.34 8.34 -2.68 7.68 -2 7 C-1.28072705 4.68234271 -0.6090107 2.34904126 0 0 Z " fill="#DFC961" transform="translate(95,78)"/>
<path d="M0 0 C0 0.99 0 1.98 0 3 C0.99 3.33 1.98 3.66 3 4 C-0.00313748 5.50156874 -2.79067522 5.09281204 -6.125 5.0625 C-7.40632813 5.05347656 -8.68765625 5.04445313 -10.0078125 5.03515625 C-11.48894531 5.01775391 -11.48894531 5.01775391 -13 5 C-12.3915625 4.70351562 -11.783125 4.40703125 -11.15625 4.1015625 C-8.89581148 2.99384923 -8.89581148 2.99384923 -6.5 1.375 C-4 0 -4 0 0 0 Z " fill="#77B8B9" transform="translate(116,103)"/>
<path d="M0 0 C1.33333333 1.33333333 2.66666667 2.66666667 4 4 C4.886875 4.86625 5.77375 5.7325 6.6875 6.625 C9 9 9 9 10 11 C8.53984709 10.71758359 7.08190207 10.42373386 5.625 10.125 C4.81289062 9.96257812 4.00078125 9.80015625 3.1640625 9.6328125 C1 9 1 9 -1 7 C-0.625 3.375 -0.625 3.375 0 0 Z " fill="#79BBBC" transform="translate(152,64)"/>
<path d="M0 0 C2.64 0.33 5.28 0.66 8 1 C8 2.65 8 4.3 8 6 C5.23723823 5.47731534 2.6739124 4.89130413 0 4 C0 2.68 0 1.36 0 0 Z " fill="#82C9CA" transform="translate(96,114)"/>
<path d="M0 0 C4.83256305 0.41421969 6.82679218 2.46413986 10 6 C3.539801 6.36567164 3.539801 6.36567164 1.0625 4.6875 C0 3 0 3 0 0 Z " fill="#0B060A" transform="translate(131,133)"/>
<path d="M0 0 C2.31 0 4.62 0 7 0 C7.33 1.32 7.66 2.64 8 4 C5.03 4 2.06 4 -1 4 C-0.67 2.68 -0.34 1.36 0 0 Z " fill="#0C0B0B" transform="translate(104,135)"/>
<path d="M0 0 C2.33294775 -0.04241723 4.66702567 -0.04092937 7 0 C7.33 0.33 7.66 0.66 8 1 C9.51469448 1.23192865 11.03754562 1.41215238 12.5625 1.5625 C13.38878906 1.64628906 14.21507813 1.73007812 15.06640625 1.81640625 C15.70449219 1.87699219 16.34257813 1.93757812 17 2 C17 2.33 17 2.66 17 3 C9.08 3.495 9.08 3.495 1 4 C0.67 2.68 0.34 1.36 0 0 Z " fill="#00443E" transform="translate(89,0)"/>
<path d="M0 0 C2.00948183 0.01778303 4.01668765 0.16786374 6.01953125 0.33203125 C5.02953125 0.66203125 4.03953125 0.99203125 3.01953125 1.33203125 C3.34953125 2.65203125 3.67953125 3.97203125 4.01953125 5.33203125 C1.04953125 5.33203125 -1.92046875 5.33203125 -4.98046875 5.33203125 C-3.05235036 0.51173527 -3.05235036 0.51173527 0 0 Z " fill="#7EC3C4" transform="translate(84.98046875,93.66796875)"/>
<path d="M0 0 C3 1 3 1 5 3 C4.21625 3.0825 3.4325 3.165 2.625 3.25 C-0.14749104 3.72806339 -0.14749104 3.72806339 -1.3125 6.0625 C-1.539375 6.701875 -1.76625 7.34125 -2 8 C-3.32 7.67 -4.64 7.34 -6 7 C-4.02 4.69 -2.04 2.38 0 0 Z " fill="#D5C9C9" transform="translate(105,131)"/>
<path d="M0 0 C0 0.66 0 1.32 0 2 C-3.9813783 3.3271261 -7.85045227 3.06915913 -12 3 C-10 0 -10 0 -7.125 -0.75 C-4.34990614 -0.97200751 -2.59410701 -0.89796012 0 0 Z " fill="#162023" transform="translate(17,79)"/>
<path d="M0 0 C0.33 1.32 0.66 2.64 1 4 C0.34 4 -0.32 4 -1 4 C-1.2475 4.598125 -1.495 5.19625 -1.75 5.8125 C-3.16370012 8.28647521 -4.65055383 9.43370255 -7 11 C-7.66 10.67 -8.32 10.34 -9 10 C-8.38125 9.7525 -7.7625 9.505 -7.125 9.25 C-4.57860966 7.75212333 -4.17316583 6.65917588 -3 4 C-2.02418241 2.64886795 -1.02970259 1.31053056 0 0 Z " fill="#7CBFC0" transform="translate(87,23)"/>
<path d="M0 0 C2.31 0 4.62 0 7 0 C5.25 4.875 5.25 4.875 3 6 C0 1.125 0 1.125 0 0 Z " fill="#548283" transform="translate(131,94)"/>
<path d="M0 0 C1.98 0 3.96 0 6 0 C5.67 1.32 5.34 2.64 5 4 C3.68 4.33 2.36 4.66 1 5 C0.67 3.35 0.34 1.7 0 0 Z " fill="#0F1818" transform="translate(104,102)"/>
<path d="M0 0 C1.98567708 0.5859375 3.97135417 1.171875 5.95703125 1.7578125 C4.39453125 2.8828125 4.39453125 2.8828125 1.95703125 3.7578125 C-1.79296875 2.8828125 -1.79296875 2.8828125 -5.04296875 1.7578125 C-2.04296875 -0.2421875 -2.04296875 -0.2421875 0 0 Z " fill="#0C0A0C" transform="translate(157.04296875,73.2421875)"/>
<path d="M0 0 C0.99 0 1.98 0 3 0 C2.75 1.875 2.75 1.875 2 4 C-0.0625 5.25 -0.0625 5.25 -2 6 C-1.49396008 3.83125748 -1.00016187 2.00032373 0 0 Z " fill="#0B1112" transform="translate(112,73)"/>
<path d="M0 0 C1.8125 0.8125 1.8125 0.8125 2.8125 2.8125 C-0.1575 2.8125 -3.1275 2.8125 -6.1875 2.8125 C-2.77144161 -0.23755214 -2.77144161 -0.23755214 0 0 Z " fill="#0F080E" transform="translate(35.1875,136.1875)"/>
<path d="M0 0 C2 1.375 2 1.375 4 3 C4 3.66 4 4.32 4 5 C2.35 5 0.7 5 -1 5 C-0.67 3.35 -0.34 1.7 0 0 Z " fill="#030303" transform="translate(117,134)"/>
</svg>
